<?xml version="1.0" encoding="UTF-8" standalone="no"?>
<svg
   xmlns:dc="http://purl.org/dc/elements/1.1/"
   xmlns:cc="http://creativecommons.org/ns#"
   xmlns:rdf="http://www.w3.org/1999/02/22-rdf-syntax-ns#"
   xmlns:svg="http://www.w3.org/2000/svg"
   xmlns="http://www.w3.org/2000/svg"
   xmlns:xlink="http://www.w3.org/1999/xlink"
   xmlns:sodipodi="http://sodipodi.sourceforge.net/DTD/sodipodi-0.dtd"
   xmlns:inkscape="http://www.inkscape.org/namespaces/inkscape"
   id="ant"
   viewBox="0 0 32 32"
   version="1.0"
   inkscape:version="0.48.5 r10040"
   width="32"
   height="32"
   sodipodi:docname="ant-2.svg"
   inkscape:export-filename="C:\Users\fuchsto\Workspaces\dnants.git\res\ant-4_32.bmp.png"
   inkscape:export-xdpi="92.530121"
   inkscape:export-ydpi="92.530121">
  <sodipodi:namedview
     pagecolor="#ffffff"
     bordercolor="#666666"
     borderopacity="1"
     objecttolerance="10"
     gridtolerance="10"
     guidetolerance="10"
     inkscape:pageopacity="0"
     inkscape:pageshadow="2"
     inkscape:window-width="1166"
     inkscape:window-height="907"
     id="namedview18"
     showgrid="false"
     showguides="true"
     inkscape:guide-bbox="true"
     inkscape:zoom="5.2149125"
     inkscape:cx="41.750706"
     inkscape:cy="-4.5996808"
     inkscape:window-x="0"
     inkscape:window-y="0"
     inkscape:window-maximized="0"
     inkscape:current-layer="ant"
     fit-margin-top="0"
     fit-margin-left="0"
     fit-margin-right="0"
     fit-margin-bottom="0" />
  <defs
     id="defs3">
    <linearGradient
       id="WhiteTransparent">
      <stop
         style="stop-color:white"
         offset="0"
         id="stop6" />
      <stop
         style="stop-color:white;stop-opacity:0"
         offset="1"
         id="stop8" />
    </linearGradient>
    <linearGradient
       id="linearGradient3153"
       y2="472.51999"
       xlink:href="#WhiteTransparent"
       gradientUnits="userSpaceOnUse"
       x2="680.06"
       gradientTransform="matrix(0.63377,2.3652,-2.3652,0.63377,761.18,-1845.5)"
       y1="471.38"
       x1="682.03998" />
    <linearGradient
       id="linearGradient3156"
       y2="474.35001"
       xlink:href="#WhiteTransparent"
       gradientUnits="userSpaceOnUse"
       x2="676.89001"
       gradientTransform="matrix(-2.3652,-0.63377,-0.63377,2.3652,1976,-632.1)"
       y1="471.57001"
       x1="681.71997" />
  </defs>
  <path
     inkscape:connector-curvature="0"
     d="m 6.410777,10.985759 c -0.298294,0.224231 0.102456,1.007343 0.250573,1.169393 0.9963573,1.38506 2.08148,0.925225 2.332457,1.26063 0.253035,0.333523 1.462667,0.849028 3.614497,1.176896 0.0083,0.512529 0.03908,0.996795 0.09669,1.456565 C 11.382217,15.715722 9.892806,15.429307 9.059641,15.431191 8.181217,15.429291 7.906814,15.591 7.374,15.819 c -0.187198,0.08102 -2.286,0.601465 -2.286,0.940624 0,0.342942 1.384091,0.46919 1.523981,0.295835 1.228145,0.179011 2.706867,-0.40324 3.077162,-0.342942 0.370295,0.06407 3.219513,0.823439 3.240085,0.827207 0.21395,0.900695 0.558484,0.612836 0.926721,1.213928 -1.41535,-0.03768 -3.9559897,1.245523 -5.3733977,2.543806 -0.8971553,0.932428 -0.6385467,2.266466 -0.19559,1.674385 0.318866,-0.412661 1.084242,-0.641788 1.499796,-1.078946 0.4155537,-0.437158 2.6249827,-1.062746 3.5507227,-1.69587 -2.617354,2.748139 0.838286,3.891289 2.872132,3.797803 1.804908,0.115222 5.037612,-2.22666 3.001452,-3.679144 1.005969,0.589786 2.97882,1.168265 3.369689,1.579044 0.417611,0.435273 1.16606,0.664401 1.486983,1.078946 1.772411,0.73298 0.08149,-1.416573 -0.188892,-1.668733 -1.419466,-1.300167 -3.95599,-2.583375 -5.373398,-2.543804 0.368237,-0.601092 0.642918,-0.326425 0.858924,-1.229003 0.01844,-0.0019 2.867734,-0.749952 3.240087,-0.812134 0.372352,-0.06217 1.849014,0.521952 3.079219,0.341058 0.137824,0.175247 1.523979,0.04712 1.521921,-0.29395 0.0021,-0.341058 -1.406719,-0.267571 -1.593923,-0.348597 -0.530756,-0.229884 -1.491064,-0.989257 -2.371543,-0.989257 -0.833165,0.0019 -2.334919,0.288299 -3.657698,0.618051 0.0576,-0.456002 0.100799,-0.940267 0.109024,-1.452796 2.151828,-0.331637 3.363518,-0.845257 3.612438,-1.17878 0.253037,-0.333521 0.762883,0.222192 2.334516,-1.262515 0.146051,-0.160169 0.548867,-0.945161 0.248516,-1.167509 -0.35178,-0.261918 -0.552982,0.334647 -0.641442,0.562649 -0.596586,0.271339 -2.63099,0.701253 -2.972485,0.825644 -0.343553,0.122484 -0.872011,-0.01239 -2.70909,0.995717 -0.281834,-0.985489 -0.991569,-1.654417 -1.859706,-2.008665 1.199347,-0.0019 2.071599,-0.216694 2.071599,-1.426415 0,-1.322778 -0.277722,-0.541922 -0.744707,-1.519874 C 20.308617,7.806135 21.234355,7.154167 21.512077,7.061837 22.684701,5.526628 20.525504,6.29215 18.516797,7.555524 17.88318,6.677438 17.06853,6.149835 16.169536,6.136646 c -0.002,-0.0019 -0.0042,-0.0075 -0.0062,-0.0056 -0.0083,0 -0.01844,-0.0019 -0.02675,-0.0019 -0.901051,0.0113 -1.732159,0.546447 -2.363718,1.426417 -1.724553,-0.754594 -4.1083545,-2.10719 -2.985007,-0.495574 0.279777,0.09421 1.205517,0.746183 2.483036,1.354812 -0.46904,0.976068 -0.746762,0.19898 -0.746762,1.521758 0,1.205952 0.872252,1.424531 2.069539,1.424531 -0.866079,0.356132 -1.575812,1.02506 -1.857648,2.00678 C 10.898949,12.359769 10.062495,12.402363 9.721,12.278 9.377447,12.155515 7.644866,11.812194 7.048279,11.540857 6.961879,11.314739 6.764791,10.721943 6.410954,10.985745 z"
     style="fill:#999999;fill-opacity:1;stroke:#585858;stroke-width:0.2;stroke-miterlimit:4;stroke-opacity:1;stroke-dasharray:none"
     id="ant-shape"
     inkscape:export-filename="C:\Users\fuchsto\Workspaces\dnants.git\res\ant-4_64.png"
     inkscape:export-xdpi="92.511139"
     inkscape:export-ydpi="92.511139"
     sodipodi:nodetypes="cccccccsccccccsccccccccccccccccccccccscccccccccscccccc" />
  <path
     inkscape:connector-curvature="0"
     d="m 12.752197,22.456828 c -0.205389,-0.905065 0.04473,-2.25445 2.618284,-2.252566 0.333266,0 0.548835,0.544865 0.548835,1.01594 0.507497,2.846907 -0.762037,1.973509 -1.659137,1.894292 -0.537418,-0.10626 -1.138755,-0.0048 -1.507982,-0.657666 z M 13.005966,9.853613 c 0.133721,-1.456563 0.338813,-0.658696 0.904543,-1.840153 0.522527,-1.089126 0.901052,-1.454681 1.612842,-1.458449 0.660361,0.0019 0.382639,-0.658378 0.380582,1.683808 0.0041,1.066513 0.226292,2.231011 -0.88048,2.227241 -1.102659,0 -2.105948,0.391885 -2.017487,-0.612447 z m -0.0047,5.072586 c -0.07405,-0.987373 0.09257,-2.08592 0.794078,-2.728466 0.421724,-0.39005 0.833165,-0.759374 1.396836,-0.763142 0.958655,0.0037 0.682991,1.997359 0.680933,3.054451 -0.0042,1.085357 0.124418,3.090692 -0.08337,3.902825 -0.209835,0.81025 -1.366324,-0.102291 -1.995572,-0.228248 -0.39704,-0.891275 -0.797028,-2.001318 -0.792905,-3.23742 z"
     style="fill:#e6e6e6;fill-opacity:1;stroke:#848484;stroke-width:0.2;stroke-miterlimit:4;stroke-opacity:1;stroke-dasharray:none"
     id="ant-specularity"
     inkscape:export-filename="C:\Users\fuchsto\Workspaces\dnants.git\res\ant-4_64.png"
     inkscape:export-xdpi="92.511139"
     inkscape:export-ydpi="92.511139"
     sodipodi:nodetypes="cccccccccccccccccc" />
  <path
     inkscape:connector-curvature="0"
     d="m 16.960578,20.254994 c -1.236375,0.936497 -0.653474,1.198772 -0.649361,2.60069 3.318279,1.493131 3.433477,-2.561945 0.649361,-2.60069 z M 19.302424,9.87816 C 19.176929,8.421595 18.917727,9.652801 18.354054,8.46946 17.823298,7.380334 17.453003,7.011013 16.739155,7.012897 c -0.730305,0.910116 -1.156145,3.494618 0.4999,3.907281 1.104714,-0.0019 2.14977,-0.03956 2.063369,-1.042018 z m -0.0432,5.500271 c 0.07612,-0.981721 -0.09052,-2.087804 -0.789964,-2.728467 -0.425841,-0.386281 -0.83728,-0.759371 -1.392723,-0.759371 -1.479124,1.475407 -0.799267,4.980644 -0.538003,6.957274 0.211891,0.804597 1.68073,0.186542 2.061312,-0.674578 0.397039,-0.887505 0.665548,-1.556872 0.659378,-2.794858 z"
     style="opacity:1;fill:#e6e6e6;fill-opacity:1;stroke:#848484;stroke-width:0.20000000000000001;stroke-miterlimit:4;stroke-opacity:1;stroke-dasharray:none"
     id="ant-gloss"
     inkscape:export-filename="C:\Users\fuchsto\Workspaces\dnants.git\res\ant-4_64.png"
     inkscape:export-xdpi="92.511139"
     inkscape:export-ydpi="92.511139"
     sodipodi:nodetypes="cccccccccccccc" />
  <metadata
     id="metadata16">
    <rdf:RDF>
      <cc:Work>
        <dc:format>image/svg+xml</dc:format>
        <dc:type
           rdf:resource="http://purl.org/dc/dcmitype/StillImage" />
        <cc:license
           rdf:resource="http://creativecommons.org/licenses/publicdomain/" />
        <dc:publisher>
          <cc:Agent
             rdf:about="http://openclipart.org/">
            <dc:title>Openclipart</dc:title>
          </cc:Agent>
        </dc:publisher>
        <dc:title />
        <dc:date>2006-08-29T16:35:08</dc:date>
        <dc:description>Balanced ant design with specularity</dc:description>
        <dc:source>https://openclipart.org/detail/66/ant-by-andy</dc:source>
        <dc:creator>
          <cc:Agent>
            <dc:title>Andy</dc:title>
          </cc:Agent>
        </dc:creator>
        <dc:subject>
          <rdf:Bag>
            <rdf:li>animal</rdf:li>
            <rdf:li>ant</rdf:li>
            <rdf:li>black</rdf:li>
            <rdf:li>black &amp; white</rdf:li>
            <rdf:li>bug</rdf:li>
            <rdf:li>creature</rdf:li>
            <rdf:li>creepy</rdf:li>
            <rdf:li>glossy</rdf:li>
            <rdf:li>icon</rdf:li>
            <rdf:li>insect</rdf:li>
            <rdf:li>logo</rdf:li>
            <rdf:li>shiny</rdf:li>
            <rdf:li>spooky</rdf:li>
          </rdf:Bag>
        </dc:subject>
      </cc:Work>
      <cc:License
         rdf:about="http://creativecommons.org/licenses/publicdomain/">
        <cc:permits
           rdf:resource="http://creativecommons.org/ns#Reproduction" />
        <cc:permits
           rdf:resource="http://creativecommons.org/ns#Distribution" />
        <cc:permits
           rdf:resource="http://creativecommons.org/ns#DerivativeWorks" />
      </cc:License>
    </rdf:RDF>
  </metadata>
</svg>
