<?xml version="1.0" encoding="UTF-8" standalone="no"?>
<!-- Created with Inkscape (http://www.inkscape.org/) -->

<svg
   xmlns:dc="http://purl.org/dc/elements/1.1/"
   xmlns:cc="http://creativecommons.org/ns#"
   xmlns:rdf="http://www.w3.org/1999/02/22-rdf-syntax-ns#"
   xmlns:svg="http://www.w3.org/2000/svg"
   xmlns="http://www.w3.org/2000/svg"
   xmlns:sodipodi="http://sodipodi.sourceforge.net/DTD/sodipodi-0.dtd"
   xmlns:inkscape="http://www.inkscape.org/namespaces/inkscape"
   id="svg2"
   xml:space="preserve"
   viewBox="0 0 67.704 61.238"
   version="1.1"
   inkscape:version="0.48.5 r10040"
   width="16"
   height="16"
   sodipodi:docname="num_8.svg"><defs
   id="defs33">
    
  
      
      
      
      
      
      
      
      
      
      
      
      
      
      
      
      
      
      
      
      
      
      
      
      
    </defs><sodipodi:namedview
   pagecolor="#ffffff"
   bordercolor="#666666"
   borderopacity="1"
   objecttolerance="10"
   gridtolerance="10"
   guidetolerance="10"
   inkscape:pageopacity="0"
   inkscape:pageshadow="2"
   inkscape:window-width="1920"
   inkscape:window-height="1057"
   id="namedview31"
   showgrid="false"
   inkscape:zoom="14.113845"
   inkscape:cx="-1.1283179"
   inkscape:cy="15.764836"
   inkscape:window-x="-8"
   inkscape:window-y="-8"
   inkscape:window-maximized="1"
   inkscape:current-layer="svg2" />
  
<metadata
   id="metadata29"><rdf:RDF><cc:Work><dc:format>image/svg+xml</dc:format><dc:type
         rdf:resource="http://purl.org/dc/dcmitype/StillImage" /><cc:license
         rdf:resource="http://creativecommons.org/licenses/publicdomain/" /><dc:publisher><cc:Agent
           rdf:about="http://openclipart.org/"><dc:title>Openclipart</dc:title></cc:Agent></dc:publisher><dc:title /></cc:Work><cc:License
       rdf:about="http://creativecommons.org/licenses/publicdomain/"><cc:permits
         rdf:resource="http://creativecommons.org/ns#Reproduction" /><cc:permits
         rdf:resource="http://creativecommons.org/ns#Distribution" /><cc:permits
         rdf:resource="http://creativecommons.org/ns#DerivativeWorks" /></cc:License></rdf:RDF></metadata>
<g
   style="font-size:67.70400238px;font-style:normal;font-variant:normal;font-weight:normal;font-stretch:normal;text-align:center;line-height:125%;letter-spacing:0px;word-spacing:0px;text-anchor:middle;fill:#999999;fill-opacity:1;stroke:none;font-family:Consolas;-inkscape-font-specification:Consolas"
   id="text2983"
   transform="matrix(0.8,0,0,0.8,6.6794884,6.1238003)"><path
     d="m 53.602442,45.414789 c -4.6e-5,2.51522 -0.515209,4.750117 -1.545489,6.704696 -1.03037,1.954596 -2.469795,3.59857 -4.318279,4.931929 -1.848565,1.333365 -4.03043,2.348539 -6.545602,3.045523 -2.515239,0.696985 -5.24257,1.045477 -8.182002,1.045478 -3.242519,-10e-7 -6.098641,-0.363645 -8.568375,-1.090933 -2.469766,-0.727289 -4.537993,-1.742462 -6.204685,-3.045523 -1.666713,-1.303055 -2.924315,-2.848543 -3.772812,-4.636468 -0.84851,-1.78791 -1.272761,-3.757649 -1.272756,-5.909224 -5e-6,-3.636428 1.015168,-6.772859 3.045523,-9.409303 2.030338,-2.636397 5.16677,-5.030387 9.409303,-7.181979 -3.878889,-1.969709 -6.712284,-4.15915 -8.500191,-6.56833 -1.787927,-2.409105 -2.681886,-5.174316 -2.681879,-8.295641 -7e-6,-1.909087 0.393941,-3.757611 1.181845,-5.5455791 0.787888,-1.7878664 1.977307,-3.3788097 3.568262,-4.7728346 1.590932,-1.3939137 3.583399,-2.507574 5.977407,-3.3409842 2.393974,-0.83329231 5.212216,-1.24996792 8.454736,-1.25002815 3.060646,6.023e-5 5.750097,0.3258248 8.068363,0.97729465 2.318198,0.6515884 4.265209,1.5834267 5.84104,2.7955175 1.575752,1.2122037 2.757596,2.6819322 3.545535,4.40919 0.787852,1.7273619 1.1818,3.6516459 1.181844,5.7728569 -4.4e-5,3.454666 -0.962186,6.394123 -2.886428,8.81838 -1.924326,2.424332 -4.659233,4.54559 -8.20473,6.36378 1.75758,0.878838 3.393979,1.848555 4.909201,2.909156 1.515146,1.060657 2.833356,2.242501 3.954635,3.545534 1.121193,1.303083 1.992424,2.75766 2.613695,4.363735 0.62118,1.606115 0.931793,3.394032 0.931839,5.363757 z M 44.193139,14.686825 C 44.193103,11.989843 43.246113,9.9822242 41.352166,8.6639624 39.458153,7.3458039 36.799005,6.6866989 33.374714,6.6866452 c -3.394038,5.37e-5 -6.038034,0.6515828 -7.931996,1.9545894 -1.893998,1.30311 -2.840988,3.2576974 -2.840973,5.8637684 -1.5e-5,1.181889 0.227263,2.272822 0.681833,3.272801 0.45454,1.000064 1.159101,1.939478 2.113684,2.818245 0.954549,0.878846 2.143968,1.742501 3.568262,2.590967 1.424252,0.84854 3.121258,1.712195 5.091024,2.590968 3.424289,-1.606061 5.969799,-3.280339 7.636535,-5.022841 1.666669,-1.742422 2.50002,-3.765192 2.500056,-6.068318 z m 0.818201,31.318886 c -3.8e-5,-1.121222 -0.18186,-2.212154 -0.545467,-3.272801 -0.363681,-1.060611 -1.01521,-2.106088 -1.95459,-3.136434 -0.939449,-1.030304 -2.197051,-2.060629 -3.772812,-3.090978 -1.575822,-1.030302 -3.575865,-2.090931 -6.000135,-3.18189 -2.060675,1.000048 -3.795561,1.992494 -5.204662,2.977339 -1.409141,0.984894 -2.545529,1.984916 -3.409168,3.000068 -0.863671,1.015194 -1.477321,2.068247 -1.84095,3.159162 -0.363659,1.09095 -0.545481,2.24249 -0.545467,3.454623 -1.4e-5,1.36368 0.295447,2.568251 0.886384,3.613718 0.590906,1.045487 1.40153,1.93187 2.431872,2.65915 1.030308,0.727297 2.257607,1.272763 3.681901,1.636401 1.424252,0.36365 2.96974,0.545473 4.636468,0.545467 1.60607,6e-6 3.121254,-0.166665 4.545557,-0.500012 1.424243,-0.333334 2.659118,-0.84092 3.704629,-1.522761 1.045443,-0.681825 1.871218,-1.54548 2.477328,-2.590968 0.606038,-1.045466 0.909074,-2.295493 0.909112,-3.750084 z"
     style="font-size:93.09300232px;fill:#999999"
     id="path2993"
     inkscape:connector-curvature="0" /></g></svg>