<?xml version="1.0" encoding="UTF-8" standalone="no"?>
<!-- Created with Inkscape (http://www.inkscape.org/) -->

<svg
   xmlns:dc="http://purl.org/dc/elements/1.1/"
   xmlns:cc="http://creativecommons.org/ns#"
   xmlns:rdf="http://www.w3.org/1999/02/22-rdf-syntax-ns#"
   xmlns:svg="http://www.w3.org/2000/svg"
   xmlns="http://www.w3.org/2000/svg"
   xmlns:sodipodi="http://sodipodi.sourceforge.net/DTD/sodipodi-0.dtd"
   xmlns:inkscape="http://www.inkscape.org/namespaces/inkscape"
   id="svg2"
   xml:space="preserve"
   viewBox="0 0 67.704 61.238"
   version="1.1"
   inkscape:version="0.48.5 r10040"
   width="16"
   height="16"
   sodipodi:docname="num_2.svg"><defs
   id="defs33">
    
  
      
      
      
      
      
      
      
      
      
      
      
      
      
      
      
      
      
      
      
      
      
      
      
      
    </defs><sodipodi:namedview
   pagecolor="#ffffff"
   bordercolor="#666666"
   borderopacity="1"
   objecttolerance="10"
   gridtolerance="10"
   guidetolerance="10"
   inkscape:pageopacity="0"
   inkscape:pageshadow="2"
   inkscape:window-width="1920"
   inkscape:window-height="1057"
   id="namedview31"
   showgrid="false"
   inkscape:zoom="16"
   inkscape:cx="-10.284806"
   inkscape:cy="13.423133"
   inkscape:window-x="-8"
   inkscape:window-y="-8"
   inkscape:window-maximized="1"
   inkscape:current-layer="svg2" />
  
<metadata
   id="metadata29"><rdf:RDF><cc:Work><dc:format>image/svg+xml</dc:format><dc:type
         rdf:resource="http://purl.org/dc/dcmitype/StillImage" /><cc:license
         rdf:resource="http://creativecommons.org/licenses/publicdomain/" /><dc:publisher><cc:Agent
           rdf:about="http://openclipart.org/"><dc:title>Openclipart</dc:title></cc:Agent></dc:publisher><dc:title /></cc:Work><cc:License
       rdf:about="http://creativecommons.org/licenses/publicdomain/"><cc:permits
         rdf:resource="http://creativecommons.org/ns#Reproduction" /><cc:permits
         rdf:resource="http://creativecommons.org/ns#Distribution" /><cc:permits
         rdf:resource="http://creativecommons.org/ns#DerivativeWorks" /></cc:License></rdf:RDF></metadata>
<g
   style="font-size:67.70400238px;font-style:normal;font-variant:normal;font-weight:normal;font-stretch:normal;text-align:center;line-height:125%;letter-spacing:0px;word-spacing:0px;text-anchor:middle;fill:#999999;fill-opacity:1;stroke:none;font-family:Consolas;-inkscape-font-specification:Consolas"
   id="text2983-1"
   transform="matrix(0.8,0,0,0.8,6.806764,6.0419803)"><path
     d="m 53.602442,60.324215 -39.137244,0 0,-7.091069 15.363982,-15.27307 c 2.515184,-2.48488 4.560682,-4.636441 6.136502,-6.454691 1.575763,-1.818192 2.803062,-3.477319 3.681901,-4.977385 0.878774,-1.499998 1.469696,-2.916695 1.772767,-4.250095 0.303003,-1.333324 0.454521,-2.772749 0.454555,-4.318279 -3.4e-5,-1.454534 -0.197008,-2.840928 -0.590922,-4.159184 C 40.890002,12.482278 40.283928,11.323162 39.46576,10.323091 38.647529,9.3231192 37.5869,8.5352234 36.283871,7.9594011 34.980784,7.3836835 33.420144,7.0957986 31.601947,7.0957453 29.086718,7.0957986 26.79879,7.6564167 24.738156,8.7776013 22.677489,9.8988891 20.783509,11.353466 19.05621,13.141336 L 14.692476,7.9139456 c 2.242466,-2.3636348 4.825854,-4.2576149 7.750174,-5.681946 2.924291,-1.42421491 6.325879,-2.13635142 10.204775,-2.13641165 2.636396,6.023e-5 5.037962,0.39400808 7.204708,1.18184475 2.166681,0.7879548 4.037933,1.9243428 5.613762,3.4091676 1.575754,1.484936 2.795477,3.3031569 3.659173,5.4546677 0.863614,2.151612 1.295441,4.575906 1.295484,7.272891 -4.3e-5,2.272819 -0.303079,4.378925 -0.909111,6.318324 -0.606116,1.939472 -1.522802,3.871332 -2.750062,5.795585 -1.227338,1.924314 -2.772826,3.916782 -4.636468,5.977407 -1.863711,2.060675 -4.068304,4.318299 -6.613785,6.77288 l -10.77297,10.500236 28.864286,0 z"
     style="font-size:93.09300232px;fill:#999999"
     id="path3021"
     inkscape:connector-curvature="0" /></g></svg>