<?xml version="1.0" encoding="UTF-8" standalone="no"?>
<!-- Created with Inkscape (http://www.inkscape.org/) -->

<svg
   xmlns:dc="http://purl.org/dc/elements/1.1/"
   xmlns:cc="http://creativecommons.org/ns#"
   xmlns:rdf="http://www.w3.org/1999/02/22-rdf-syntax-ns#"
   xmlns:svg="http://www.w3.org/2000/svg"
   xmlns="http://www.w3.org/2000/svg"
   xmlns:sodipodi="http://sodipodi.sourceforge.net/DTD/sodipodi-0.dtd"
   xmlns:inkscape="http://www.inkscape.org/namespaces/inkscape"
   id="svg2"
   xml:space="preserve"
   viewBox="0 0 67.704 61.238"
   version="1.1"
   inkscape:version="0.48.5 r10040"
   width="16"
   height="16"
   sodipodi:docname="num_5.svg"><defs
   id="defs33">
    
  
      
      
      
      
      
      
      
      
      
      
      
      
      
      
      
      
      
      
      
      
      
      
      
      
    </defs><sodipodi:namedview
   pagecolor="#ffffff"
   bordercolor="#666666"
   borderopacity="1"
   objecttolerance="10"
   gridtolerance="10"
   guidetolerance="10"
   inkscape:pageopacity="0"
   inkscape:pageshadow="2"
   inkscape:window-width="1920"
   inkscape:window-height="1057"
   id="namedview31"
   showgrid="false"
   inkscape:zoom="14.113845"
   inkscape:cx="9.9246591"
   inkscape:cy="15.764836"
   inkscape:window-x="-8"
   inkscape:window-y="-8"
   inkscape:window-maximized="1"
   inkscape:current-layer="text2993" />
  
<metadata
   id="metadata29"><rdf:RDF><cc:Work><dc:format>image/svg+xml</dc:format><dc:type
         rdf:resource="http://purl.org/dc/dcmitype/StillImage" /><cc:license
         rdf:resource="http://creativecommons.org/licenses/publicdomain/" /><dc:publisher><cc:Agent
           rdf:about="http://openclipart.org/"><dc:title>Openclipart</dc:title></cc:Agent></dc:publisher><dc:title /></cc:Work><cc:License
       rdf:about="http://creativecommons.org/licenses/publicdomain/"><cc:permits
         rdf:resource="http://creativecommons.org/ns#Reproduction" /><cc:permits
         rdf:resource="http://creativecommons.org/ns#Distribution" /><cc:permits
         rdf:resource="http://creativecommons.org/ns#DerivativeWorks" /></cc:License></rdf:RDF></metadata><g
   style="font-size:84.62999725px;font-style:normal;font-variant:normal;font-weight:bold;font-stretch:normal;text-align:center;line-height:125%;letter-spacing:0px;word-spacing:0px;text-anchor:middle;fill:#666666;fill-opacity:1;stroke:none;font-family:Poplar Std;-inkscape-font-specification:Poplar Std Bold"
   id="text2993"><g
     style="font-size:67.70400238px;font-weight:normal;line-height:125%;font-family:Consolas;-inkscape-font-specification:Consolas"
     id="text2983"
     transform="matrix(0.8,0,0,0.8,6.7976729,6.2056206)"><path
       d="m 52.102408,41.323788 c -4.4e-5,2.939476 -0.636422,5.621352 -1.909134,8.045635 -1.272797,2.424306 -3.022834,4.507684 -5.250118,6.250141 -2.227358,1.742466 -4.856202,3.098556 -7.886541,4.068273 -3.030397,0.969718 -6.303195,1.454577 -9.818402,1.454578 -0.878827,-10e-7 -1.825817,-0.02273 -2.840973,-0.06818 -1.01519,-0.04546 -2.022788,-0.106064 -3.022796,-0.181822 -1.000035,-0.07576 -1.977328,-0.159095 -2.931884,-0.250006 -0.954576,-0.09091 -1.810655,-0.196974 -2.568239,-0.318189 l 0,-7.18198 c 1.63639,0.393955 3.507643,0.68184 5.613762,0.863656 2.106093,0.181828 4.234926,0.272739 6.386508,0.272733 2.424274,6e-6 4.606139,-0.287878 6.545601,-0.863655 1.939409,-0.575763 3.59096,-1.401539 4.954657,-2.477329 1.363634,-1.075771 2.409111,-2.378829 3.136434,-3.909179 0.727254,-1.530322 1.090898,-3.250056 1.090934,-5.159206 -3.6e-5,-3.697031 -1.325822,-6.386483 -3.977362,-8.068364 C 36.973251,32.119066 33.162563,31.278139 28.19278,31.27811 l -11.272981,0 0,-30.36431884 32.000719,0 0,6.90924624 -24.546006,0 0,16.6821936 5.181935,0 c 2.848524,3.6e-5 5.621311,0.257617 8.318368,0.772744 2.696998,0.515198 5.098565,1.416733 7.204708,2.704607 2.106068,1.287938 3.803075,3.015248 5.091023,5.181934 1.287865,2.166741 1.931818,4.886496 1.931862,8.159275 z"
       style="font-size:93.09300232px;fill:#999999"
       id="path2993"
       inkscape:connector-curvature="0" /></g></g>
</svg>