<?xml version="1.0" encoding="UTF-8" standalone="no"?>
<!-- Created with Inkscape (http://www.inkscape.org/) -->

<svg
   xmlns:dc="http://purl.org/dc/elements/1.1/"
   xmlns:cc="http://creativecommons.org/ns#"
   xmlns:rdf="http://www.w3.org/1999/02/22-rdf-syntax-ns#"
   xmlns:svg="http://www.w3.org/2000/svg"
   xmlns="http://www.w3.org/2000/svg"
   xmlns:sodipodi="http://sodipodi.sourceforge.net/DTD/sodipodi-0.dtd"
   xmlns:inkscape="http://www.inkscape.org/namespaces/inkscape"
   id="svg2"
   xml:space="preserve"
   viewBox="0 0 67.704 61.238"
   version="1.1"
   inkscape:version="0.48.5 r10040"
   width="16"
   height="16"
   sodipodi:docname="num_3.svg"><defs
   id="defs33">
    
  
      
      
      
      
      
      
      
      
      
      
      
      
      
      
      
      
      
      
      
      
      
      
      
      
    </defs><sodipodi:namedview
   pagecolor="#ffffff"
   bordercolor="#666666"
   borderopacity="1"
   objecttolerance="10"
   gridtolerance="10"
   guidetolerance="10"
   inkscape:pageopacity="0"
   inkscape:pageshadow="2"
   inkscape:window-width="1920"
   inkscape:window-height="1057"
   id="namedview31"
   showgrid="false"
   inkscape:zoom="16"
   inkscape:cx="-10.284806"
   inkscape:cy="8.6940928"
   inkscape:window-x="-8"
   inkscape:window-y="-8"
   inkscape:window-maximized="1"
   inkscape:current-layer="text2993" />
  
<metadata
   id="metadata29"><rdf:RDF><cc:Work><dc:format>image/svg+xml</dc:format><dc:type
         rdf:resource="http://purl.org/dc/dcmitype/StillImage" /><cc:license
         rdf:resource="http://creativecommons.org/licenses/publicdomain/" /><dc:publisher><cc:Agent
           rdf:about="http://openclipart.org/"><dc:title>Openclipart</dc:title></cc:Agent></dc:publisher><dc:title /></cc:Work><cc:License
       rdf:about="http://creativecommons.org/licenses/publicdomain/"><cc:permits
         rdf:resource="http://creativecommons.org/ns#Reproduction" /><cc:permits
         rdf:resource="http://creativecommons.org/ns#Distribution" /><cc:permits
         rdf:resource="http://creativecommons.org/ns#DerivativeWorks" /></cc:License></rdf:RDF></metadata><g
   style="font-size:84.62999725px;font-style:normal;font-variant:normal;font-weight:bold;font-stretch:normal;text-align:center;line-height:125%;letter-spacing:0px;word-spacing:0px;text-anchor:middle;fill:#000000;fill-opacity:1;stroke:none;font-family:Poplar Std;-inkscape-font-specification:Poplar Std Bold"
   id="text2993"><g
     style="font-size:67.70400238px;font-weight:normal;line-height:125%;font-family:Consolas;-inkscape-font-specification:Consolas"
     id="text2983"
     transform="matrix(0.8,0,0,0.8,6.7703996,6.1238003)"><path
       d="m 52.466053,42.278355 c -4.5e-5,2.606134 -0.530359,5.053157 -1.590945,7.341074 -1.060672,2.287938 -2.651615,4.287981 -4.772835,6.000135 -2.121296,1.712162 -4.78802,3.060676 -8.00018,4.045545 -3.21222,0.984871 -6.954725,1.477305 -11.227525,1.477306 -2.363706,-10e-7 -4.484964,-0.07576 -6.363779,-0.227278 -1.878841,-0.151519 -3.636455,-0.348493 -5.272846,-0.590922 l 0,-7.091069 c 1.878821,0.333348 3.863712,0.590929 5.954679,0.772745 2.090941,0.181828 4.22735,0.272739 6.409235,0.272733 2.969741,6e-6 5.507674,-0.265151 7.613808,-0.795472 2.106078,-0.530308 3.825812,-1.295476 5.159207,-2.295506 1.333329,-1.000012 2.303047,-2.21216 2.909156,-3.636446 0.606038,-1.42426 0.909075,-3.030355 0.909111,-4.81829 -3.6e-5,-1.636381 -0.36368,-3.060654 -1.090933,-4.272823 -0.727324,-1.212125 -1.750073,-2.227299 -3.068251,-3.045523 -1.318242,-0.818175 -2.894034,-1.431824 -4.727379,-1.840951 -1.8334,-0.409073 -3.841019,-0.613622 -6.022863,-0.61365 l -6.772879,0 0,-6.500146 6.86379,0 c 1.787896,3.4e-5 3.416719,-0.23482 4.886474,-0.704561 1.469702,-0.469673 2.727305,-1.14393 3.772812,-2.022773 1.045447,-0.87877 1.848494,-1.962127 2.409145,-3.250073 0.560585,-1.287867 0.840895,-2.750019 0.840928,-4.386462 C 41.28395,12.914105 40.314232,10.595874 38.374827,9.1412459 36.43536,7.6867204 33.586814,6.959432 29.82918,6.9593786 27.829115,6.959432 25.768465,7.1564059 23.647223,7.550301 21.525949,7.9443017 19.253173,8.5352234 16.828888,9.3230682 l 0,-6.9092463 c 1.030316,-0.3635863 2.128824,-0.6893509 3.295528,-0.9772947 1.16668,-0.2878261 2.333371,-0.53025555 3.500079,-0.72728909 1.166676,-0.19691432 2.325792,-0.34843272 3.477351,-0.45455568 1.151521,-0.10600281 2.257605,-0.15903425 3.318256,-0.15909448 3.151561,6.023e-5 5.924347,0.34097664 8.318369,1.02275025 2.39396,0.6818921 4.394003,1.6591858 6.000135,2.9318841 1.606058,1.2728109 2.818206,2.8182987 3.636446,4.6364679 0.818158,1.8182728 1.227258,3.8637708 1.2273,6.1365018 -4.2e-5,3.394058 -0.871273,6.242604 -2.613695,8.545647 -1.742501,2.303116 -4.128916,4.136489 -7.159252,5.500123 1.545456,0.242461 3.068216,0.72732 4.568284,1.454578 1.499996,0.727319 2.84851,1.659157 4.045546,2.795518 1.196955,1.136415 2.166672,2.477353 2.909156,4.022817 0.742397,1.545511 1.113617,3.257669 1.113662,5.13648 z"
       style="font-size:93.09300232px;fill:#999999"
       id="path3024"
       inkscape:connector-curvature="0" /></g></g>
</svg>