<?xml version="1.0" encoding="UTF-8" standalone="no"?>
<!-- Created with Inkscape (http://www.inkscape.org/) -->

<svg
   xmlns:dc="http://purl.org/dc/elements/1.1/"
   xmlns:cc="http://creativecommons.org/ns#"
   xmlns:rdf="http://www.w3.org/1999/02/22-rdf-syntax-ns#"
   xmlns:svg="http://www.w3.org/2000/svg"
   xmlns="http://www.w3.org/2000/svg"
   xmlns:sodipodi="http://sodipodi.sourceforge.net/DTD/sodipodi-0.dtd"
   xmlns:inkscape="http://www.inkscape.org/namespaces/inkscape"
   id="svg2"
   xml:space="preserve"
   viewBox="0 0 67.704 61.238"
   version="1.1"
   inkscape:version="0.48.5 r10040"
   width="16"
   height="16"
   sodipodi:docname="num_9.svg"><defs
   id="defs33">
    
  
      
      
      
      
      
      
      
      
      
      
      
      
      
      
      
      
      
      
      
      
      
      
      
      
    </defs><sodipodi:namedview
   pagecolor="#ffffff"
   bordercolor="#666666"
   borderopacity="1"
   objecttolerance="10"
   gridtolerance="10"
   guidetolerance="10"
   inkscape:pageopacity="0"
   inkscape:pageshadow="2"
   inkscape:window-width="1920"
   inkscape:window-height="1057"
   id="namedview31"
   showgrid="false"
   inkscape:zoom="14.113845"
   inkscape:cx="-1.1283179"
   inkscape:cy="20.887698"
   inkscape:window-x="-8"
   inkscape:window-y="-8"
   inkscape:window-maximized="1"
   inkscape:current-layer="text2983" />
  
<metadata
   id="metadata29"><rdf:RDF><cc:Work><dc:format>image/svg+xml</dc:format><dc:type
         rdf:resource="http://purl.org/dc/dcmitype/StillImage" /><cc:license
         rdf:resource="http://creativecommons.org/licenses/publicdomain/" /><dc:publisher><cc:Agent
           rdf:about="http://openclipart.org/"><dc:title>Openclipart</dc:title></cc:Agent></dc:publisher><dc:title /></cc:Work><cc:License
       rdf:about="http://creativecommons.org/licenses/publicdomain/"><cc:permits
         rdf:resource="http://creativecommons.org/ns#Reproduction" /><cc:permits
         rdf:resource="http://creativecommons.org/ns#Distribution" /><cc:permits
         rdf:resource="http://creativecommons.org/ns#DerivativeWorks" /></cc:License></rdf:RDF></metadata>
<g
   style="font-size:67.70400238px;font-style:normal;font-variant:normal;font-weight:normal;font-stretch:normal;line-height:125%;letter-spacing:0px;word-spacing:0px;fill:#999999;fill-opacity:1;stroke:none;font-family:Consolas;-inkscape-font-specification:Consolas"
   id="text2983"><path
     d="m 50.234186,28.273494 c -3.7e-5,4.630429 -0.557624,8.612333 -1.672765,11.945723 -1.11521,3.333419 -2.76373,6.072872 -4.945566,8.218366 -2.181894,2.145508 -4.884983,3.72736 -8.109273,4.745562 -3.224333,1.018205 -6.945625,1.527307 -11.163887,1.527307 l -3.963726,0 0,-5.527397 4.400099,0 c 3.127329,5e-6 5.830417,-0.315153 8.109273,-0.945476 2.278818,-0.63031 4.175828,-1.557603 5.691037,-2.78188 1.515159,-1.22426 2.67276,-2.715201 3.472806,-4.472828 0.799989,-1.7576 1.296969,-3.763704 1.490942,-6.018318 l 0.145459,-1.490942 c -1.527336,0.89701 -3.28495,1.618237 -5.272847,2.163684 -1.987945,0.545486 -4.145568,0.818219 -6.472873,0.818201 -2.400069,1.8e-5 -4.509205,-0.351505 -6.327415,-1.054569 -1.818232,-0.703026 -3.327356,-1.684866 -4.527374,-2.945521 -1.200033,-1.260611 -2.103083,-2.757613 -2.709151,-4.49101 -0.606079,-1.733344 -0.909116,-3.618233 -0.909112,-5.654673 -4e-6,-2.206076 0.400005,-4.266726 1.200027,-6.181957 0.800013,-1.915154 1.921249,-3.581856 3.363712,-5.000112 1.442447,-1.418169 3.169757,-2.5394052 5.181934,-3.3637123 2.012151,-0.8242132 4.230381,-1.2363432 6.654695,-1.2363914 2.351546,4.82e-5 4.527351,0.3879353 6.52742,1.1636625 2.000016,0.7758213 3.727326,2.0303937 5.181935,3.7637212 1.454545,1.733414 2.593963,3.981947 3.418258,6.745606 0.824226,2.763732 1.236355,6.12138 1.236392,10.072954 z M 33.579266,11.727667 c -1.357625,4.3e-5 -2.612197,0.22429 -3.763721,0.672743 -1.151556,0.448536 -2.145516,1.103096 -2.981885,1.96368 -0.836395,0.860665 -1.497015,1.921294 -1.981863,3.181889 -0.48487,1.260671 -0.7273,2.703126 -0.727289,4.327371 -1.1e-5,1.478853 0.175751,2.800093 0.527285,3.963725 0.351512,1.163691 0.896978,2.151591 1.6364,2.963704 0.739397,0.812164 1.690933,1.43642 2.85461,1.872768 1.163646,0.436398 2.545494,0.654584 4.145547,0.654561 0.89697,2.3e-5 1.824263,-0.08483 2.781881,-0.254551 0.957574,-0.169678 1.890928,-0.399986 2.800063,-0.690925 0.909086,-0.290891 1.775771,-0.630292 2.600059,-1.018205 0.824232,-0.387861 1.563642,-0.799992 2.218232,-1.236391 -3.1e-5,-3.127313 -0.230339,-5.739491 -0.690925,-7.83654 -0.460646,-2.096981 -1.127327,-3.781865 -2.000045,-5.054659 -0.872774,-1.272715 -1.933402,-2.175765 -3.18189,-2.709152 -1.248536,-0.533302 -2.660688,-0.799975 -4.236459,-0.800018 z"
     style="font-size:93.09300232px;fill:#999999"
     id="path3780"
     inkscape:connector-curvature="0" /></g></svg>