<?xml version="1.0" encoding="UTF-8" standalone="no"?>
<!-- Created with Inkscape (http://www.inkscape.org/) -->

<svg
   xmlns:dc="http://purl.org/dc/elements/1.1/"
   xmlns:cc="http://creativecommons.org/ns#"
   xmlns:rdf="http://www.w3.org/1999/02/22-rdf-syntax-ns#"
   xmlns:svg="http://www.w3.org/2000/svg"
   xmlns="http://www.w3.org/2000/svg"
   xmlns:sodipodi="http://sodipodi.sourceforge.net/DTD/sodipodi-0.dtd"
   xmlns:inkscape="http://www.inkscape.org/namespaces/inkscape"
   id="svg2"
   xml:space="preserve"
   viewBox="0 0 67.704 61.238"
   version="1.1"
   inkscape:version="0.48.5 r10040"
   width="16"
   height="16"
   sodipodi:docname="num_6.svg"><defs
   id="defs33">
    
  
      
      
      
      
      
      
      
      
      
      
      
      
      
      
      
      
      
      
      
      
      
      
      
      
    </defs><sodipodi:namedview
   pagecolor="#ffffff"
   bordercolor="#666666"
   borderopacity="1"
   objecttolerance="10"
   gridtolerance="10"
   guidetolerance="10"
   inkscape:pageopacity="0"
   inkscape:pageshadow="2"
   inkscape:window-width="1920"
   inkscape:window-height="1057"
   id="namedview31"
   showgrid="false"
   inkscape:zoom="14.113845"
   inkscape:cx="1.4577951"
   inkscape:cy="15.764836"
   inkscape:window-x="-8"
   inkscape:window-y="-8"
   inkscape:window-maximized="1"
   inkscape:current-layer="svg2" />
  
<metadata
   id="metadata29"><rdf:RDF><cc:Work><dc:format>image/svg+xml</dc:format><dc:type
         rdf:resource="http://purl.org/dc/dcmitype/StillImage" /><cc:license
         rdf:resource="http://creativecommons.org/licenses/publicdomain/" /><dc:publisher><cc:Agent
           rdf:about="http://openclipart.org/"><dc:title>Openclipart</dc:title></cc:Agent></dc:publisher><dc:title /></cc:Work><cc:License
       rdf:about="http://creativecommons.org/licenses/publicdomain/"><cc:permits
         rdf:resource="http://creativecommons.org/ns#Reproduction" /><cc:permits
         rdf:resource="http://creativecommons.org/ns#Distribution" /><cc:permits
         rdf:resource="http://creativecommons.org/ns#DerivativeWorks" /></cc:License></rdf:RDF></metadata>
<g
   style="font-size:93.09300232px;font-style:normal;font-variant:normal;font-weight:normal;font-stretch:normal;line-height:125%;letter-spacing:0px;word-spacing:0px;fill:#999999;fill-opacity:1;stroke:none;font-family:Consolas;-inkscape-font-specification:Consolas"
   id="text2983"
   transform="matrix(0.8,0,0,0.8,6.7703998,6.1237997)"><path
     d="m 54.329732,41.096507 c -4.7e-5,2.72735 -0.492481,5.288011 -1.477306,7.68199 -0.984915,2.394002 -2.38646,4.477381 -4.20464,6.250141 -1.818262,1.77277 -4.007703,3.16674 -6.56833,4.181912 -2.560695,1.015174 -5.401665,1.522761 -8.522918,1.522762 -3.272824,-10e-7 -6.166825,-0.52274 -8.682014,-1.568217 -2.515222,-1.045477 -4.621328,-2.651572 -6.318324,-4.81829 -1.697017,-2.166708 -2.984923,-4.901615 -3.863723,-8.20473 -0.878814,-3.303088 -1.318217,-7.212263 -1.318211,-11.727537 -6e-6,-3.030342 0.196968,-5.9698 0.590922,-8.81838 0.393942,-2.848512 1.045471,-5.530387 1.954589,-8.045635 0.909103,-2.515164 2.12125,-4.818243 3.636446,-6.909247 C 21.071395,8.5503716 22.957799,6.7548785 25.215441,5.2547916 27.473048,3.754814 30.132196,2.5881223 33.192893,1.7547129 36.253539,0.9214198 39.79907,0.50474418 43.829496,0.50468477 l 5.863768,0 0,6.90924623 -6.363779,0 c -3.545567,5.25e-5 -6.62139,0.4243041 -9.227481,1.2727559 -2.606143,0.8485543 -4.788008,2.0455501 -6.545601,3.5909901 -1.757634,1.545535 -3.106147,3.409212 -4.045546,5.591035 -0.93943,2.181907 -1.530351,4.621353 -1.772767,7.318346 l -0.181822,1.863678 c 1.909118,-1.121203 4.113711,-2.022738 6.613785,-2.704606 2.500033,-0.681797 5.204637,-1.022714 8.113819,-1.02275 3.000036,3.6e-5 5.62888,0.43944 7.886541,1.318211 2.257587,0.878842 4.136416,2.098565 5.63649,3.659173 1.49999,1.560672 2.628802,3.431924 3.38644,5.613763 0.757546,2.181891 1.136342,4.575882 1.136389,7.18198 z m -8.272913,0.500011 c -3.9e-5,-1.818203 -0.21974,-3.462177 -0.659106,-4.931929 -0.439441,-1.469706 -1.12885,-2.712156 -2.068228,-3.727357 -0.93945,-1.015146 -2.12887,-1.803042 -3.568262,-2.363689 -1.439457,-0.560589 -3.159191,-0.840898 -5.159207,-0.840928 -1.151567,3e-5 -2.318259,0.106093 -3.500079,0.318189 -1.181867,0.212155 -2.340983,0.507616 -3.477351,0.886383 -1.136408,0.378825 -2.219764,0.810653 -3.250073,1.295484 -1.030342,0.484886 -1.969756,1.000049 -2.818245,1.545489 -1.4e-5,3.909201 0.272719,7.174423 0.8182,9.795675 0.545452,2.621285 1.356075,4.719815 2.431873,6.295596 1.075763,1.575802 2.40155,2.697038 3.977362,3.363712 1.57577,0.666688 3.393991,1.000028 5.454668,1.000023 1.727283,5e-6 3.310651,-0.280304 4.750107,-0.840928 1.439394,-0.560612 2.681844,-1.386387 3.727356,-2.477329 1.045443,-1.090923 1.863642,-2.416709 2.454601,-3.977362 0.590884,-1.560627 0.886345,-3.340968 0.886384,-5.341029 z"
     id="path3000"
     inkscape:connector-curvature="0" /></g></svg>