<?xml version="1.0" encoding="UTF-8" standalone="no"?>
<!-- Created with Inkscape (http://www.inkscape.org/) -->

<svg
   xmlns:dc="http://purl.org/dc/elements/1.1/"
   xmlns:cc="http://creativecommons.org/ns#"
   xmlns:rdf="http://www.w3.org/1999/02/22-rdf-syntax-ns#"
   xmlns:svg="http://www.w3.org/2000/svg"
   xmlns="http://www.w3.org/2000/svg"
   xmlns:sodipodi="http://sodipodi.sourceforge.net/DTD/sodipodi-0.dtd"
   xmlns:inkscape="http://www.inkscape.org/namespaces/inkscape"
   id="svg2"
   xml:space="preserve"
   viewBox="0 0 67.704 61.238"
   version="1.1"
   inkscape:version="0.48.5 r10040"
   width="16"
   height="16"
   sodipodi:docname="num_0.svg"><defs
   id="defs33">
    
  
      
      
      
      
      
      
      
      
      
      
      
      
      
      
      
      
      
      
      
      
      
      
      
      
    </defs><sodipodi:namedview
   pagecolor="#ffffff"
   bordercolor="#666666"
   borderopacity="1"
   objecttolerance="10"
   gridtolerance="10"
   guidetolerance="10"
   inkscape:pageopacity="0"
   inkscape:pageshadow="2"
   inkscape:window-width="1920"
   inkscape:window-height="1057"
   id="namedview31"
   showgrid="false"
   inkscape:zoom="10.900238"
   inkscape:cx="-46.917274"
   inkscape:cy="14.157579"
   inkscape:window-x="-8"
   inkscape:window-y="-8"
   inkscape:window-maximized="1"
   inkscape:current-layer="svg2" />
  
<metadata
   id="metadata29"><rdf:RDF><cc:Work><dc:format>image/svg+xml</dc:format><dc:type
         rdf:resource="http://purl.org/dc/dcmitype/StillImage" /><cc:license
         rdf:resource="http://creativecommons.org/licenses/publicdomain/" /><dc:publisher><cc:Agent
           rdf:about="http://openclipart.org/"><dc:title>Openclipart</dc:title></cc:Agent></dc:publisher><dc:title /></cc:Work><cc:License
       rdf:about="http://creativecommons.org/licenses/publicdomain/"><cc:permits
         rdf:resource="http://creativecommons.org/ns#Reproduction" /><cc:permits
         rdf:resource="http://creativecommons.org/ns#Distribution" /><cc:permits
         rdf:resource="http://creativecommons.org/ns#DerivativeWorks" /></cc:License></rdf:RDF></metadata>
<g
   style="font-size:67.70400238px;font-style:normal;font-variant:normal;font-weight:normal;font-stretch:normal;text-align:center;line-height:125%;letter-spacing:0px;word-spacing:0px;text-anchor:middle;fill:#999999;fill-opacity:1;stroke:none;font-family:Consolas;-inkscape-font-specification:Consolas"
   id="text2983"
   transform="matrix(0.8,0,0,0.8,6.6749429,6.1238003)"><path
     d="m 54.966109,30.641729 c -4.7e-5,4.545582 -0.454603,8.689611 -1.363667,12.432098 -0.909156,3.742522 -2.287974,6.954712 -4.136457,9.63658 -1.848566,2.681884 -4.14407,4.757686 -6.886518,6.227413 -2.742518,1.46973 -5.962284,2.204594 -9.659308,2.204595 -3.181912,-10e-7 -6.075914,-0.598498 -8.682014,-1.795495 -2.606133,-1.196994 -4.833453,-3.037943 -6.681968,-5.522851 -1.848535,-2.484896 -3.272808,-5.65163 -4.272824,-9.500214 -1.000027,-3.848551 -1.500037,-8.409255 -1.500033,-13.682126 -4e-6,-4.545522 0.462127,-8.697127 1.386394,-12.454825 0.924257,-3.757615 2.303075,-6.977381 4.136457,-9.6593083 1.833363,-2.681824 4.128867,-4.7576262 6.886519,-6.2274127 2.757618,-1.46967055 5.969808,-2.20453482 9.63658,-2.20459505 3.18186,6.023e-5 6.075862,0.59855793 8.682013,1.79549495 2.606082,1.1970538 4.833403,3.0455784 6.681969,5.5455792 1.848483,2.5001066 3.272756,5.6744169 4.272823,9.5229419 0.999976,3.84861 1.499987,8.409314 1.500034,13.682125 z m -8.00018,0.272734 c -3.9e-5,-1.030296 -0.03792,-2.053045 -0.113639,-3.068251 -0.0758,-1.015141 -0.159133,-2.007586 -0.250006,-2.97734 L 21.465356,43.551111 c 0.454541,1.575808 1.030311,3.030384 1.727311,4.363734 0.696969,1.333374 1.537897,2.477338 2.522784,3.431895 0.984852,0.954575 2.106088,1.697015 3.363712,2.227323 1.257582,0.530321 2.689431,0.795479 4.295551,0.795473 2.060625,6e-6 3.931877,-0.500005 5.613763,-1.500034 1.681823,-1.000014 3.113672,-2.484895 4.295551,-4.454646 1.181808,-1.969727 2.090919,-4.416749 2.727334,-7.341074 0.636339,-2.924286 0.954528,-6.310722 0.954567,-10.159319 z M 19.7835,30.368996 c -1.2e-5,0.939444 0.0076,1.878858 0.02273,2.818245 0.01514,0.939441 0.06817,1.848552 0.159095,2.727334 L 45.102251,17.323248 C 44.647658,15.777803 44.071888,14.368682 43.374939,13.09588 42.677919,11.823173 41.844568,10.724664 40.874883,9.8003516 39.905132,8.8761399 38.799048,8.1564274 37.556626,7.6412122 36.314146,7.1261023 34.920176,6.868521 33.374714,6.8684675 c -2.060676,5.35e-5 -3.931928,0.5000642 -5.613762,1.5000337 -1.681875,1.0000735 -3.113724,2.4925298 -4.295551,4.4773738 -1.18186,1.984938 -2.09097,4.439536 -2.727335,7.363802 -0.63639,2.924345 -0.954578,6.310781 -0.954566,10.159319 z"
     style="font-size:93.09300232px;fill:#999999"
     id="path2993"
     inkscape:connector-curvature="0" /></g></svg>