<?xml version="1.0" encoding="UTF-8" standalone="no"?>
<!-- Created with Inkscape (http://www.inkscape.org/) -->

<svg
   xmlns:dc="http://purl.org/dc/elements/1.1/"
   xmlns:cc="http://creativecommons.org/ns#"
   xmlns:rdf="http://www.w3.org/1999/02/22-rdf-syntax-ns#"
   xmlns:svg="http://www.w3.org/2000/svg"
   xmlns="http://www.w3.org/2000/svg"
   xmlns:sodipodi="http://sodipodi.sourceforge.net/DTD/sodipodi-0.dtd"
   xmlns:inkscape="http://www.inkscape.org/namespaces/inkscape"
   id="svg2"
   xml:space="preserve"
   viewBox="0 0 113.38582 113.38582"
   version="1.1"
   inkscape:version="0.48.5 r10040"
   width="32"
   height="32"
   sodipodi:docname="rock.svg"><sodipodi:namedview
   pagecolor="#ffffff"
   bordercolor="#666666"
   borderopacity="1"
   objecttolerance="10"
   gridtolerance="10"
   guidetolerance="10"
   inkscape:pageopacity="0"
   inkscape:pageshadow="2"
   inkscape:window-width="1595"
   inkscape:window-height="907"
   id="namedview118"
   showgrid="false"
   inkscape:zoom="7.1736729"
   inkscape:cx="-11.340992"
   inkscape:cy="9.9655584"
   inkscape:window-x="0"
   inkscape:window-y="0"
   inkscape:window-maximized="0"
   inkscape:current-layer="svg2"
   units="mm"
   fit-margin-top="0"
   fit-margin-left="0"
   fit-margin-right="0"
   fit-margin-bottom="0" />
  <defs
   id="defs6">
    <clipPath
   id="clipPath58">
      <path
   id="path60"
   d="M 4.469,6.72 4.707,7.279 C 5.055,7.361 5.309,7.158 5.469,6.681 5.629,6.201 5.562,5.881 5.27,5.72 4.949,5.56 4.695,5.627 4.508,5.92 4.297,6.213 4.281,6.478 4.469,6.72 z"
   inkscape:connector-curvature="0" />
    </clipPath>
    <clipPath
   id="clipPath66">
      <path
   id="path68"
   d="m 5.015,-10.817 h 2.5 v 3.75 h -2.5 v -3.75 z"
   inkscape:connector-curvature="0" />
    </clipPath>
    <radialGradient
   id="radialGradient70"
   gradientUnits="userSpaceOnUse"
   cy="-7.8999"
   cx="6.2002001"
   r="1.775">
      <stop
   id="stop72"
   style="stop-color:#ffffff;stop-opacity:.27840"
   offset="0" />
      <stop
   id="stop74"
   style="stop-color:#ffffff;stop-opacity:.44710"
   offset="1" />
    </radialGradient>
    <mask
   id="mask76">
      <g
   id="g78">
        <g
   id="g80"
   clip-path="url(#clipPath66)">
          <path
   id="path82"
   style="fill:url(#radialGradient70)"
   d="m 5.015,-10.817 h 2.5 v 3.75 h -2.5 v -3.75 z"
   inkscape:connector-curvature="0" />
        </g>
      </g>
    </mask>
    <radialGradient
   id="radialGradient86"
   gradientUnits="userSpaceOnUse"
   cy="-7.8999"
   cx="6.2002001"
   r="1.775">
      <stop
   id="stop88"
   style="stop-color:#000000"
   offset="0" />
      <stop
   id="stop90"
   style="stop-color:#000000"
   offset="1" />
    </radialGradient>
    <clipPath
   id="clipPath98">
      <path
   id="path100"
   d="M 2.027,5.599 H 2.59 C 2.723,5.388 2.762,5.174 2.707,4.959 2.656,4.693 2.508,4.572 2.27,4.599 2.055,4.627 1.934,4.748 1.906,4.959 1.883,5.174 1.922,5.388 2.027,5.599 z"
   inkscape:connector-curvature="0" />
    </clipPath>
    <clipPath
   id="clipPath106">
      <path
   id="path108"
   d="m 1.265,-10.817 h 2.5 v 2.5 h -2.5 v -2.5 z"
   inkscape:connector-curvature="0" />
    </clipPath>
    <radialGradient
   id="radialGradient110"
   gradientUnits="userSpaceOnUse"
   cy="-9.1499004"
   cx="2.9003999"
   r="1.25">
      <stop
   id="stop112"
   style="stop-color:#ffffff;stop-opacity:.27840"
   offset="0" />
      <stop
   id="stop114"
   style="stop-color:#ffffff;stop-opacity:.44710"
   offset="1" />
    </radialGradient>
    <mask
   id="mask116">
      <g
   id="g118">
        <g
   id="g120"
   clip-path="url(#clipPath106)">
          <path
   id="path122"
   style="fill:url(#radialGradient110)"
   d="m 1.265,-10.817 h 2.5 v 2.5 h -2.5 v -2.5 z"
   inkscape:connector-curvature="0" />
        </g>
      </g>
    </mask>
    <radialGradient
   id="radialGradient126"
   gradientUnits="userSpaceOnUse"
   cy="-9.1499004"
   cx="2.9003999"
   r="1.25">
      <stop
   id="stop128"
   style="stop-color:#000000"
   offset="0" />
      <stop
   id="stop130"
   style="stop-color:#000000"
   offset="1" />
    </radialGradient>
    <clipPath
   id="clipPath138">
      <path
   id="path140"
   d="m 6.148,4.478 0.2,-0.199 C 6.375,4.013 6.32,3.787 6.188,3.599 6.055,3.385 5.922,3.439 5.789,3.76 c -0.055,0.132 -0.055,0.281 0,0.441 0.078,0.187 0.199,0.277 0.359,0.277 z"
   inkscape:connector-curvature="0" />
    </clipPath>
    <clipPath
   id="clipPath146">
      <path
   id="path148"
   d="m 6.265,-12.367 h 2.5 v 2.5 h -2.5 v -2.5 z"
   inkscape:connector-curvature="0" />
    </clipPath>
    <radialGradient
   id="radialGradient150"
   gradientUnits="userSpaceOnUse"
   cy="-10.55"
   cx="7.6001"
   r="0.92500001">
      <stop
   id="stop152"
   style="stop-color:#ffffff;stop-opacity:.27840"
   offset="0" />
      <stop
   id="stop154"
   style="stop-color:#ffffff;stop-opacity:.44710"
   offset="1" />
    </radialGradient>
    <mask
   id="mask156">
      <g
   id="g158">
        <g
   id="g160"
   clip-path="url(#clipPath146)">
          <path
   id="path162"
   style="fill:url(#radialGradient150)"
   d="m 6.265,-12.367 h 2.5 v 2.5 h -2.5 v -2.5 z"
   inkscape:connector-curvature="0" />
        </g>
      </g>
    </mask>
    <radialGradient
   id="radialGradient166"
   gradientUnits="userSpaceOnUse"
   cy="-10.55"
   cx="7.6001"
   r="0.92500001">
      <stop
   id="stop168"
   style="stop-color:#000000"
   offset="0" />
      <stop
   id="stop170"
   style="stop-color:#000000"
   offset="1" />
    </radialGradient>
    <clipPath
   id="clipPath178">
      <path
   id="path180"
   d="m 8.906,4.478 1.121,0.364 c 0,-0.11 0.016,-0.321 0.039,-0.641 0,-0.27 -0.05,-0.453 -0.16,-0.563 C 9.879,3.588 9.734,3.56 9.469,3.56 9.203,3.56 9.043,3.588 8.988,3.638 8.855,3.748 8.801,3.881 8.828,4.041 8.883,4.201 8.906,4.345 8.906,4.478 z"
   inkscape:connector-curvature="0" />
    </clipPath>
    <clipPath
   id="clipPath186">
      <path
   id="path188"
   d="m 10.015,-12.267 h 3.75 v 2.5 h -3.75 v -2.5 z"
   inkscape:connector-curvature="0" />
    </clipPath>
    <radialGradient
   id="radialGradient190"
   gradientUnits="userSpaceOnUse"
   cy="-10.5"
   cx="11.8"
   r="1.9">
      <stop
   id="stop192"
   style="stop-color:#ffffff;stop-opacity:.27840"
   offset="0" />
      <stop
   id="stop194"
   style="stop-color:#ffffff;stop-opacity:.44710"
   offset="1" />
    </radialGradient>
    <mask
   id="mask196">
      <g
   id="g198">
        <g
   id="g200"
   clip-path="url(#clipPath186)">
          <path
   id="path202"
   style="fill:url(#radialGradient190)"
   d="m 10.015,-12.267 h 3.75 v 2.5 h -3.75 v -2.5 z"
   inkscape:connector-curvature="0" />
        </g>
      </g>
    </mask>
    <radialGradient
   id="radialGradient206"
   gradientUnits="userSpaceOnUse"
   cy="-10.5"
   cx="11.8"
   r="1.9">
      <stop
   id="stop208"
   style="stop-color:#000000"
   offset="0" />
      <stop
   id="stop210"
   style="stop-color:#000000"
   offset="1" />
    </radialGradient>
  </defs>
  <g
   id="g10"
   transform="matrix(6.8622861,0,0,-6.8622861,2.3624411,100.37906)">
    <g
   id="g12">
      <path
   id="path14"
   style="fill:#81675c;fill-rule:evenodd"
   d="m 9.27,11.799 2.199,-1 c 0.879,-0.239 1.707,-0.614 2.48,-1.118 0.184,-0.16 0.492,-0.429 0.918,-0.8 0.375,-0.321 0.723,-0.493 1.039,-0.52 0.082,-1.547 -0.105,-2.547 -0.558,-3 C 15.215,5.201 15.027,5.041 14.789,4.881 14.602,4.72 14.48,4.521 14.43,4.279 14.402,4.092 14.375,3.881 14.348,3.638 14.32,3.455 14.199,3.279 13.988,3.119 13,2.318 11.883,1.76 10.629,1.439 9.828,1.224 9.109,0.947 8.469,0.599 7.59,0.201 6.695,-0.002 5.789,-0.002 5.547,-0.002 5.055,0.107 4.309,0.318 3.402,0.4 2.773,0.506 2.43,0.638 2.16,0.775 1.906,1.158 1.668,1.799 L 0.828,4.201 C 0.773,4.388 0.602,4.705 0.309,5.158 0.043,5.56 -0.051,6.013 0.027,6.521 0.109,6.998 0.32,7.412 0.668,7.76 0.43,8.08 0.348,8.814 0.43,9.959 c 0.023,0.586 0.531,0.933 1.519,1.039 0.985,0.109 1.586,0.215 1.797,0.32 0.617,0.27 1.121,0.43 1.524,0.481 0.531,0.054 1.199,0.066 2,0.043 0.453,0 1.117,-0.016 2,-0.043 z"
   inkscape:connector-curvature="0" />
      <path
   id="path16"
   style="fill:#8c8d8a;fill-rule:evenodd"
   d="M 12.59,3.4 C 12.027,3.08 11.055,2.865 9.668,2.76 l -0.48,0.039 c 0.32,0.082 0.949,0.425 1.878,1.043 0.75,0.503 1.414,0.73 2,0.679 L 14.188,4.318 12.59,3.4 z"
   inkscape:connector-curvature="0" />
      <path
   id="path18"
   style="fill:#8c8d8a;fill-rule:evenodd"
   d="M 8.789,4.279 C 8.016,4.013 7.027,3.881 5.828,3.881 c -0.426,0 -1.492,0.05 -3.199,0.16 L 3.906,4.08 C 3.855,4.4 3.414,4.572 2.59,4.599 1.656,4.545 1.043,4.521 0.746,4.521 L 0.309,5.158 C 0.176,5.345 0.082,5.572 0.027,5.842 L 0.508,5.638 c 0.426,-0.078 1,-0.105 1.719,-0.078 0.375,0 0.933,0.012 1.679,0.039 0.508,0 1.282,-0.027 2.321,-0.078 0.933,0 1.707,0.024 2.32,0.078 0.375,0.055 0.801,0.227 1.281,0.52 0.535,0.348 0.945,0.562 1.238,0.641 0.375,0.082 1.028,0.066 1.961,-0.04 0.535,0 0.879,0.012 1.039,0.04 0.321,0.054 0.602,0.199 0.84,0.441 0.43,0.48 0.762,0.851 1,1.117 0.055,-0.32 0.055,-0.703 0,-1.16 L 15.867,7.119 C 15.336,6.56 15,6.224 14.867,6.119 14.523,5.826 14.133,5.654 13.707,5.599 13.094,5.654 12.656,5.666 12.387,5.638 11.906,5.533 11.297,5.318 10.547,4.998 9.508,4.572 8.922,4.334 8.789,4.279 z"
   inkscape:connector-curvature="0" />
      <path
   id="path20"
   style="fill:#8c8d8a;fill-rule:evenodd"
   d="M 3.027,2.72 C 2.656,2.771 2.309,2.892 1.988,3.08 1.613,3.318 1.309,3.521 1.066,3.681 L 0.949,3.76 0.867,4.08 2.508,4.041 C 3.121,3.908 4.043,3.615 5.27,3.158 6.441,2.865 7.309,2.709 7.867,2.681 L 7.906,2.638 5.43,2.599 C 5.242,2.732 4.867,2.787 4.309,2.76 3.535,2.732 3.109,2.72 3.027,2.72 z"
   inkscape:connector-curvature="0" />
      <path
   id="path22"
   style="fill:#aa907d;fill-rule:evenodd"
   d="M 7.27,8.56 C 6.441,8.267 5.668,8.107 4.949,8.08 5.188,8.135 5.855,8.334 6.949,8.681 7.746,8.947 8.402,9.107 8.906,9.158 8.109,8.865 7.562,8.666 7.27,8.56 z"
   inkscape:connector-curvature="0" />
      <path
   id="path24"
   style="fill:#aa907d;fill-rule:evenodd"
   d="M 0.789,8.799 H 1.27 c 0.05,0 0.343,-0.172 0.878,-0.52 C 1.59,8.412 1.137,8.588 0.789,8.799 z"
   inkscape:connector-curvature="0" />
      <path
   id="path26"
   style="fill:#aa907d;fill-rule:evenodd"
   d="M 10.59,9.599 H 9.707 C 9.656,9.439 9.668,9.306 9.746,9.201 c 0.242,-0.109 0.508,-0.109 0.801,0 0.082,0.105 0.094,0.238 0.043,0.398 z m -2.242,0.68 -1.52,0.441 C 6.43,10.826 6.176,10.775 6.066,10.56 5.934,10.345 6.016,10.119 6.309,9.881 6.656,9.588 7.336,9.506 8.348,9.638 c 0.054,0.293 0.054,0.508 0,0.641 z m 3.121,-0.16 c 0.851,-0.348 1.386,-0.32 1.597,0.082 l 0.883,-0.52 0.719,-0.64 -0.762,-0.563 c 0.16,-0.293 0.364,-0.371 0.602,-0.238 0.215,0.133 0.32,0.348 0.32,0.641 C 15.043,8.72 15.293,8.56 15.59,8.4 15.27,7.998 14.562,7.654 13.469,7.361 12.402,7.412 11.656,7.599 11.227,7.92 l 0.921,0.8 -0.242,-0.082 c 0.453,0.27 0.801,0.575 1.043,0.922 C 12.441,9.666 11.855,9.494 11.188,9.041 10.523,8.588 9.961,8.412 9.508,8.521 9.453,8.814 9.43,9.013 9.43,9.119 L 9.027,9.158 c -0.398,0 -1.066,-0.039 -2,-0.117 C 6.176,8.959 5.508,8.931 5.027,8.959 4.336,8.959 3.453,9.107 2.387,9.4 1.855,9.506 1.48,9.654 1.27,9.842 L 1.066,9.998 c 0.321,0.16 0.817,0.347 1.481,0.562 0.242,0.106 0.601,0.332 1.082,0.68 0.453,0.16 1.16,0.254 2.117,0.281 0.934,0.024 1.684,-0.027 2.242,-0.16 0.746,-0.16 1.907,-0.574 3.481,-1.242 z"
   inkscape:connector-curvature="0" />
      <path
   id="path28"
   style="fill:#56443d;fill-rule:evenodd"
   d="M 2.746,7.158 C 3.066,7.107 3.707,7.08 4.668,7.08 5.523,7.025 6.082,6.853 6.348,6.56 4.508,6.185 2.414,6.224 0.066,6.681 0.203,7.08 0.402,7.439 0.668,7.76 L 0.547,7.998 C 1.297,7.521 2.027,7.24 2.746,7.158 z"
   inkscape:connector-curvature="0" />
      <path
   id="path30"
   style="fill:#56443d;fill-rule:evenodd"
   d="M 7.906,2.638 7.867,2.681 9.027,2.76 9.188,2.799 10.148,2.72 c 0.454,0.028 1.161,0.172 2.122,0.438 0.933,0.269 1.636,0.641 2.117,1.121 H 14.43 C 14.402,4.092 14.375,3.881 14.348,3.638 14.32,3.455 14.199,3.279 13.988,3.119 13.348,2.638 12.547,2.185 11.59,1.76 9.773,1.654 8.547,1.947 7.906,2.638 z"
   inkscape:connector-curvature="0" />
      <path
   id="path32"
   style="fill:#56443d;fill-rule:evenodd"
   d="m 3.027,2.72 c 0.082,0 0.508,0.012 1.282,0.04 C 4.867,2.787 5.242,2.732 5.43,2.599 L 5.469,2.56 C 4.961,2.533 4.59,2.506 4.348,2.478 3.922,2.427 3.641,2.228 3.508,1.881 3.695,1.853 4.094,1.814 4.707,1.76 5.215,1.732 5.613,1.681 5.906,1.599 6.68,1.412 7.43,1.174 8.148,0.881 L 8.629,0.681 8.469,0.599 C 7.59,0.201 6.695,-0.002 5.789,-0.002 5.547,-0.002 5.055,0.107 4.309,0.318 3.402,0.4 2.773,0.506 2.43,0.638 2.16,0.775 1.906,1.158 1.668,1.799 L 1.148,3.08 0.949,3.76 1.066,3.681 C 1.309,3.521 1.613,3.318 1.988,3.08 2.309,2.892 2.656,2.775 3.027,2.72 z"
   inkscape:connector-curvature="0" />
      <path
   id="path34"
   style="fill:#56443d;fill-rule:evenodd"
   d="m 13.707,5.599 c 0.426,0.055 0.816,0.227 1.16,0.52 0.133,0.105 0.469,0.441 1,1 l 0.039,0.039 c 0,-0.449 -0.078,-0.879 -0.238,-1.277 L 15.469,5.842 C 15.254,5.865 15,5.842 14.707,5.76 14.336,5.654 14.094,5.599 13.988,5.599 h -0.281 z"
   inkscape:connector-curvature="0" />
      <path
   id="path36"
   style="fill:#464d53;fill-rule:evenodd"
   d="M 7.867,2.681 C 7.309,2.709 6.441,2.865 5.27,3.158 4.043,3.615 3.121,3.908 2.508,4.041 h 0.121 c 1.707,-0.11 2.773,-0.16 3.199,-0.16 1.199,0 2.188,0.132 2.961,0.398 0.133,0.055 0.719,0.293 1.758,0.719 0.75,0.32 1.359,0.535 1.84,0.64 0.269,0.028 0.707,0.016 1.32,-0.039 h 0.281 c 0.106,0 0.348,0.055 0.719,0.161 0.293,0.082 0.547,0.105 0.762,0.082 l 0.199,0.039 C 15.562,5.615 15.453,5.439 15.348,5.361 15.215,5.201 15.027,5.041 14.789,4.881 14.602,4.72 14.48,4.521 14.43,4.279 H 14.387 L 13.066,4.521 C 12.48,4.572 11.816,4.345 11.066,3.842 10.133,3.224 9.508,2.881 9.188,2.799 L 9.027,2.76 7.867,2.681 z"
   inkscape:connector-curvature="0" />
      <path
   id="path38"
   style="fill:#cbbcb0;fill-rule:evenodd"
   d="M 0.828,9.842 1.066,9.998 1.27,9.842 C 1.48,9.654 1.855,9.506 2.387,9.4 3.453,9.107 4.336,8.959 5.027,8.959 c 0.481,-0.028 1.149,0 2,0.082 C 7.875,9.111 8.5,9.154 8.906,9.158 8.402,9.107 7.746,8.947 6.949,8.681 5.855,8.334 5.188,8.135 4.949,8.08 4.016,7.842 3.227,7.826 2.59,8.041 L 2.148,8.279 C 1.613,8.627 1.32,8.799 1.27,8.799 H 0.789 L 0.43,8.681 c -0.055,0.504 -0.055,0.934 0,1.278 l 0.039,0.32 0.359,-0.437 z"
   inkscape:connector-curvature="0" />
      <path
   id="path40"
   style="fill:#cbbcb0;fill-rule:evenodd"
   d="m 10.828,8.361 1.32,0.359 -0.921,-0.8 c -0.184,0.105 -0.321,0.254 -0.399,0.441 z"
   inkscape:connector-curvature="0" />
      <path
   id="path42"
   style="fill:#cbbcb0;fill-rule:evenodd"
   d="M 10.746,8.318 10.629,7.521 C 10.309,7.361 10,7.334 9.707,7.439 c 0.055,0.133 0.188,0.281 0.402,0.442 0.293,0.238 0.453,0.371 0.481,0.398 l 0.156,0.039 z"
   inkscape:connector-curvature="0" />
      <path
   id="path44"
   style="fill:#cbbcb0;fill-rule:evenodd"
   d="M 13.469,7.361 13.867,7.318 C 13.602,7.107 13.082,7.013 12.309,7.041 11.453,7.119 10.879,7.158 10.59,7.158 l 0.199,1.363 c 0,-0.058 0.016,-0.109 0.039,-0.16 0.078,-0.187 0.215,-0.336 0.399,-0.441 0.429,-0.321 1.175,-0.508 2.242,-0.559 z"
   inkscape:connector-curvature="0" />
      <path
   id="path46"
   style="fill:#cbbcb0;fill-rule:evenodd"
   d="m 9.27,11.799 2.199,-1 c 0.613,-0.184 1.144,-0.387 1.597,-0.598 C 12.855,9.799 12.32,9.771 11.469,10.119 9.895,10.787 8.734,11.201 7.988,11.361 7.43,11.494 6.68,11.545 5.746,11.521 4.789,11.494 4.082,11.4 3.629,11.24 3.148,10.892 2.789,10.666 2.547,10.56 1.883,10.345 1.387,10.158 1.066,9.998 L 0.828,9.842 0.469,10.279 c 0.16,0.375 0.652,0.613 1.48,0.719 0.985,0.109 1.586,0.215 1.797,0.32 0.617,0.27 1.121,0.43 1.524,0.481 0.531,0.054 1.199,0.066 2,0.043 0.453,0 1.117,-0.016 2,-0.043 z"
   inkscape:connector-curvature="0" />
      <path
   id="path48"
   style="fill:#81675c;fill-rule:evenodd"
   d="m 6.828,10.72 1.52,-0.441 C 8.402,10.146 8.402,9.931 8.348,9.638 7.336,9.506 6.656,9.588 6.309,9.881 6.016,10.119 5.934,10.345 6.066,10.56 c 0.11,0.215 0.364,0.266 0.762,0.16 z"
   inkscape:connector-curvature="0" />
      <path
   id="path50"
   style="fill:#81675c;fill-rule:evenodd"
   d="M 9.707,9.599 H 10.59 C 10.641,9.439 10.629,9.306 10.547,9.201 10.254,9.092 9.988,9.092 9.746,9.201 9.668,9.306 9.656,9.439 9.707,9.599 z"
   inkscape:connector-curvature="0" />
      <path
   id="path52"
   style="fill:#81675c;fill-rule:evenodd"
   d="M 14.828,8.881 C 14.828,8.588 14.723,8.373 14.508,8.24 14.27,8.107 14.066,8.185 13.906,8.478 l 0.762,0.563 0.16,-0.16 z"
   inkscape:connector-curvature="0" />
      <g
   id="g54">
        <g
   id="g56"
   clip-path="url(#clipPath58)">
          <g
   id="g62"
   transform="matrix(0.8,0,0,-0.8,-0.012,-0.80033)">
            <g
   id="g84"
   mask="url(#mask76)">
              <path
   id="path92"
   style="fill:url(#radialGradient86);fill-rule:evenodd"
   d="M 4.469,6.72 4.707,7.279 C 5.055,7.361 5.309,7.158 5.469,6.681 5.629,6.201 5.562,5.881 5.27,5.72 4.949,5.56 4.695,5.627 4.508,5.92 4.297,6.213 4.281,6.478 4.469,6.72 z"
   inkscape:connector-curvature="0" />
            </g>
          </g>
        </g>
      </g>
      <g
   id="g94">
        <g
   id="g96"
   clip-path="url(#clipPath98)">
          <g
   id="g102"
   transform="matrix(0.8,0,0,-0.8,-0.012,-2.8003)">
            <g
   id="g124"
   mask="url(#mask116)">
              <path
   id="path132"
   style="fill:url(#radialGradient126);fill-rule:evenodd"
   d="M 2.027,5.599 H 2.59 C 2.723,5.388 2.762,5.174 2.707,4.959 2.656,4.693 2.508,4.572 2.27,4.599 2.055,4.627 1.934,4.748 1.906,4.959 1.883,5.174 1.922,5.388 2.027,5.599 z"
   inkscape:connector-curvature="0" />
            </g>
          </g>
        </g>
      </g>
      <g
   id="g134">
        <g
   id="g136"
   clip-path="url(#clipPath138)">
          <g
   id="g142"
   transform="matrix(0.8,0,0,-0.8,-0.012,-5.0403)">
            <g
   id="g164"
   mask="url(#mask156)">
              <path
   id="path172"
   style="fill:url(#radialGradient166);fill-rule:evenodd"
   d="m 6.148,4.478 0.2,-0.199 C 6.375,4.013 6.32,3.787 6.188,3.599 6.055,3.385 5.922,3.439 5.789,3.76 c -0.055,0.132 -0.055,0.281 0,0.441 0.078,0.187 0.199,0.277 0.359,0.277 z"
   inkscape:connector-curvature="0" />
            </g>
          </g>
        </g>
      </g>
      <g
   id="g174">
        <g
   id="g176"
   clip-path="url(#clipPath178)">
          <g
   id="g182"
   transform="matrix(0.8,0,0,-0.8,-0.012,-4.9603)">
            <g
   id="g204"
   mask="url(#mask196)">
              <path
   id="path212"
   style="fill:url(#radialGradient206);fill-rule:evenodd"
   d="m 8.906,4.478 1.121,0.364 c 0,-0.11 0.016,-0.321 0.039,-0.641 0,-0.27 -0.05,-0.453 -0.16,-0.563 C 9.879,3.588 9.734,3.56 9.469,3.56 9.203,3.56 9.043,3.588 8.988,3.638 8.855,3.748 8.801,3.881 8.828,4.041 8.883,4.201 8.906,4.345 8.906,4.478 z"
   inkscape:connector-curvature="0" />
            </g>
          </g>
        </g>
      </g>
      <path
   id="path214"
   style="fill:#000000;fill-opacity:0.2;fill-rule:evenodd"
   d="M 0.828,4.439 0.867,4.361 0.789,4.318 C 0.734,4.506 0.68,4.627 0.629,4.681 h 0.039 l 0.16,-0.242 z"
   inkscape:connector-curvature="0" />
      <path
   id="path216"
   style="fill:#000000;fill-opacity:0.2;fill-rule:evenodd"
   d="M 8.148,5.92 C 8.148,6.267 8.066,6.506 7.906,6.638 7.668,6.775 7.441,6.908 7.227,7.041 6.828,7.334 6.695,7.705 6.828,8.158 7.387,8.213 8.199,8.252 9.27,8.279 10.203,8.361 10.961,8.627 11.547,9.08 11.363,8.787 11,8.467 10.469,8.119 10.414,8.092 10.016,7.853 9.27,7.4 9.27,7.185 9.641,7.025 10.387,6.92 10.629,6.892 11,6.842 11.508,6.76 11.934,6.681 12.293,6.666 12.59,6.72 c 0.398,0.079 0.851,0.266 1.359,0.559 0.531,0.402 0.934,0.695 1.199,0.879 L 15.547,8.439 15.828,8.361 15.27,8.041 C 15.082,7.748 14.828,7.506 14.508,7.318 L 14.348,7.201 12.828,6.439 C 12.402,6.252 11.906,6.146 11.348,6.119 10.68,6.092 10.16,6.064 9.789,6.041 9.84,5.693 10.363,5.478 11.348,5.4 11.883,5.373 12.523,5.361 13.27,5.361 13.32,5.119 13.227,4.892 12.988,4.681 12.961,4.654 12.746,4.506 12.348,4.24 12.16,4.135 11.32,3.545 9.828,2.478 9.773,2.318 9.656,2.213 9.469,2.158 9.043,2.107 8.746,2.064 8.59,2.041 7.254,2.119 6.281,2.08 5.668,1.92 l 1.48,-0.442 c 0.079,-0.023 0.2,-0.023 0.36,0 0.105,0 0.172,-0.066 0.199,-0.199 C 7.148,0.908 6.402,0.787 5.469,0.92 4.48,1.052 3.867,1.412 3.629,1.998 3.707,2.025 3.949,2.041 4.348,2.041 4.641,2.013 4.855,2.08 4.988,2.24 4.508,2.213 4.148,2.224 3.906,2.279 3.746,2.334 3.508,2.467 3.188,2.681 3.48,2.521 3.828,2.467 4.227,2.521 c -0.028,0.239 -0.028,0.41 0,0.52 0.027,0.023 0.148,0.172 0.363,0.437 0.344,0.375 0.613,0.668 0.797,0.883 0.32,0.399 0.535,0.731 0.64,1 0,-0.242 -0.011,-0.586 -0.039,-1.043 0,-0.398 -0.054,-0.746 -0.16,-1.039 0.668,0.133 1.106,0.254 1.32,0.359 0.375,0.188 0.653,0.508 0.84,0.961 0.106,0.293 0.16,0.735 0.16,1.321 z"
   inkscape:connector-curvature="0" />
      <path
   id="path218"
   style="fill:#000000;fill-opacity:0.2;fill-rule:evenodd"
   d="M 2.387,3.201 C 1.695,3.572 1.188,3.959 0.867,4.361 1.027,4.439 1.242,4.4 1.508,4.24 L 2.59,3.158 3.188,2.681 2.387,3.201 z"
   inkscape:connector-curvature="0" />
      <path
   id="path220"
   style="fill:#000000;fill-opacity:0.2;fill-rule:evenodd"
   d="M 0.867,4.361 C 1.188,3.959 1.695,3.572 2.387,3.201 L 3.188,2.681 C 3.508,2.467 3.746,2.334 3.906,2.279 4.148,2.228 4.508,2.213 4.988,2.24 4.855,2.08 4.641,2.013 4.348,2.041 3.949,2.041 3.707,2.025 3.629,1.998 3.867,1.412 4.48,1.052 5.469,0.92 6.402,0.787 7.148,0.908 7.707,1.279 7.68,1.412 7.613,1.478 7.508,1.478 7.348,1.455 7.227,1.455 7.148,1.478 L 5.668,1.92 c 0.613,0.16 1.586,0.199 2.922,0.121 0.156,0.023 0.453,0.066 0.879,0.117 0.187,0.055 0.304,0.16 0.359,0.32 1.492,1.067 2.332,1.657 2.52,1.762 0.398,0.266 0.613,0.414 0.64,0.441 0.239,0.211 0.332,0.438 0.282,0.68 -0.747,0 -1.387,0.012 -1.922,0.039 -0.985,0.078 -1.508,0.293 -1.559,0.641 0.371,0.023 0.891,0.051 1.559,0.078 0.558,0.027 1.054,0.133 1.48,0.32 l 1.52,0.762 -0.282,-0.16 C 14.469,6.881 14.602,6.439 14.469,5.72 14.363,5.318 14.109,4.986 13.707,4.72 13.414,4.533 13.16,4.267 12.949,3.92 12.812,3.732 12.629,3.412 12.387,2.959 12.523,2.826 12.773,2.693 13.148,2.56 12.375,2.052 11.535,1.681 10.629,1.439 L 10.309,1.318 C 9.988,1.799 9.602,1.998 9.148,1.92 8.961,1.892 8.707,1.787 8.387,1.599 8.203,1.494 7.949,1.345 7.629,1.158 6.906,0.787 6.133,0.599 5.309,0.599 4.695,0.599 4.336,0.506 4.227,0.318 3.375,0.4 2.773,0.506 2.43,0.638 2.16,0.775 1.906,1.158 1.668,1.799 L 0.789,4.318 0.867,4.361 z"
   inkscape:connector-curvature="0" />
      <path
   id="path222"
   style="fill:#000000;fill-opacity:0.2;fill-rule:evenodd"
   d="M 0.867,4.361 C 1.188,3.959 1.695,3.572 2.387,3.201 L 3.188,2.681 C 3.508,2.467 3.746,2.334 3.906,2.279 4.148,2.228 4.508,2.213 4.988,2.24 4.855,2.08 4.641,2.013 4.348,2.041 3.949,2.041 3.707,2.025 3.629,1.998 3.867,1.412 4.48,1.052 5.469,0.92 6.402,0.787 7.148,0.908 7.707,1.279 7.68,1.412 7.613,1.478 7.508,1.478 7.348,1.455 7.227,1.455 7.148,1.478 L 5.668,1.92 c 0.613,0.16 1.586,0.199 2.922,0.121 0.156,0.023 0.453,0.066 0.879,0.117 0.187,0.055 0.304,0.16 0.359,0.32 1.492,1.067 2.332,1.657 2.52,1.762 0.398,0.266 0.613,0.414 0.64,0.441 0.239,0.211 0.332,0.438 0.282,0.68 -0.747,0 -1.387,0.012 -1.922,0.039 -0.985,0.078 -1.508,0.293 -1.559,0.641 0.371,0.023 0.891,0.051 1.559,0.078 0.558,0.027 1.054,0.133 1.48,0.32 l 1.52,0.762 -0.282,-0.16 C 14.469,6.881 14.602,6.439 14.469,5.72 14.363,5.318 14.109,4.986 13.707,4.72 13.414,4.533 13.16,4.267 12.949,3.92 12.812,3.732 12.629,3.412 12.387,2.959 12.523,2.826 12.773,2.693 13.148,2.56 12.375,2.052 11.535,1.681 10.629,1.439 L 10.309,1.318 C 9.988,1.799 9.602,1.998 9.148,1.92 8.961,1.892 8.707,1.787 8.387,1.599 8.203,1.494 7.949,1.345 7.629,1.158 6.906,0.787 6.133,0.599 5.309,0.599 4.695,0.599 4.336,0.506 4.227,0.318 3.375,0.4 2.773,0.506 2.43,0.638 2.16,0.775 1.906,1.158 1.668,1.799 L 0.789,4.318 0.867,4.361 z"
   inkscape:connector-curvature="0" />
      <path
   id="path224"
   style="fill:#000000;fill-opacity:0.2;fill-rule:evenodd"
   d="M 8.469,0.599 C 7.59,0.201 6.695,-0.002 5.789,-0.002 c -0.242,0 -0.734,0.109 -1.48,0.32 H 4.227 c 0.109,0.188 0.468,0.281 1.082,0.281 0.824,0 1.597,0.188 2.32,0.559 0.32,0.187 0.57,0.336 0.758,0.441 C 8.707,1.787 8.961,1.892 9.148,1.92 9.602,1.998 9.988,1.799 10.309,1.318 9.59,1.135 8.973,0.892 8.469,0.599 z"
   inkscape:connector-curvature="0" />
      <path
   id="path226"
   style="fill:#000000;fill-opacity:0.2;fill-rule:evenodd"
   d="M 8.469,0.599 C 7.59,0.201 6.695,-0.002 5.789,-0.002 c -0.242,0 -0.734,0.109 -1.48,0.32 H 4.227 c 0.109,0.188 0.468,0.281 1.082,0.281 0.824,0 1.597,0.188 2.32,0.559 0.32,0.187 0.57,0.336 0.758,0.441 C 8.707,1.787 8.961,1.892 9.148,1.92 9.602,1.998 9.988,1.799 10.309,1.318 9.59,1.135 8.973,0.892 8.469,0.599 z"
   inkscape:connector-curvature="0" />
      <path
   id="path228"
   style="fill:#000000;fill-opacity:0.2;fill-rule:evenodd"
   d="M 8.469,0.599 C 7.59,0.201 6.695,-0.002 5.789,-0.002 c -0.242,0 -0.734,0.109 -1.48,0.32 H 4.227 c 0.109,0.188 0.468,0.281 1.082,0.281 0.824,0 1.597,0.188 2.32,0.559 0.32,0.187 0.57,0.336 0.758,0.441 C 8.707,1.787 8.961,1.892 9.148,1.92 9.602,1.998 9.988,1.799 10.309,1.318 9.59,1.135 8.973,0.892 8.469,0.599 z"
   inkscape:connector-curvature="0" />
      <path
   id="path230"
   style="fill:#000000;fill-opacity:0.2;fill-rule:evenodd"
   d="m 15.27,7.799 c 0.21,0.265 0.398,0.425 0.558,0.48 l 0.039,0.082 h 0.039 C 15.988,6.814 15.801,5.814 15.348,5.361 15.215,5.201 15.027,5.041 14.789,4.881 14.602,4.72 14.48,4.521 14.43,4.279 14.402,4.092 14.375,3.881 14.348,3.638 14.32,3.455 14.199,3.279 13.988,3.119 L 13.148,2.56 c -0.375,0.133 -0.625,0.266 -0.761,0.399 0.242,0.453 0.429,0.773 0.562,0.961 0.211,0.347 0.465,0.613 0.758,0.8 0.402,0.266 0.652,0.598 0.762,1 0.133,0.719 0,1.161 -0.403,1.321 l 0.282,0.16 0.16,0.117 0.762,0.481 z"
   inkscape:connector-curvature="0" />
      <path
   id="path232"
   style="fill:#000000;fill-opacity:0.2;fill-rule:evenodd"
   d="m 15.27,7.799 c 0.21,0.265 0.398,0.425 0.558,0.48 l 0.039,0.082 h 0.039 C 15.988,6.814 15.801,5.814 15.348,5.361 15.215,5.201 15.027,5.041 14.789,4.881 14.602,4.72 14.48,4.521 14.43,4.279 14.402,4.092 14.375,3.881 14.348,3.638 14.32,3.455 14.199,3.279 13.988,3.119 L 13.148,2.56 c -0.375,0.133 -0.625,0.266 -0.761,0.399 0.242,0.453 0.429,0.773 0.562,0.961 0.211,0.347 0.465,0.613 0.758,0.8 0.402,0.266 0.652,0.598 0.762,1 0.133,0.719 0,1.161 -0.403,1.321 l 0.282,0.16 0.16,0.117 0.762,0.481 z"
   inkscape:connector-curvature="0" />
      <path
   id="path234"
   style="fill:#000000;fill-opacity:0.2;fill-rule:evenodd"
   d="m 15.27,7.799 c 0.21,0.265 0.398,0.425 0.558,0.48 l 0.039,0.082 h 0.039 C 15.988,6.814 15.801,5.814 15.348,5.361 15.215,5.201 15.027,5.041 14.789,4.881 14.602,4.72 14.48,4.521 14.43,4.279 14.402,4.092 14.375,3.881 14.348,3.638 14.32,3.455 14.199,3.279 13.988,3.119 L 13.148,2.56 c -0.375,0.133 -0.625,0.266 -0.761,0.399 0.242,0.453 0.429,0.773 0.562,0.961 0.211,0.347 0.465,0.613 0.758,0.8 0.402,0.266 0.652,0.598 0.762,1 0.133,0.719 0,1.161 -0.403,1.321 l 0.282,0.16 0.16,0.117 0.762,0.481 z"
   inkscape:connector-curvature="0" />
      <path
   id="path236"
   style="fill:#ffffff;fill-opacity:0.2;fill-rule:evenodd"
   d="M 4.27,9.201 C 4.613,9.119 5.133,9.107 5.828,9.158 c 0.695,0.055 1.199,0.055 1.52,0 C 6.094,8.709 4.828,8.572 3.547,8.76 2.773,8.814 2.281,8.826 2.066,8.799 2.016,8.693 1.961,8.506 1.906,8.24 1.855,8.025 1.746,7.842 1.59,7.681 1.453,7.545 1.227,7.373 0.906,7.158 0.695,6.947 0.629,6.693 0.707,6.4 0.895,6.4 1.16,6.345 1.508,6.24 1.855,6.107 2.109,6.041 2.27,6.041 2.48,6.013 2.801,6.041 3.227,6.119 3.656,6.174 3.977,6.185 4.188,6.158 3.812,5.998 3.547,5.892 3.387,5.842 3.121,5.705 2.922,5.521 2.789,5.279 2.656,4.986 2.59,4.627 2.59,4.201 2.32,4.119 2,4.252 1.629,4.599 1.309,4.892 1,4.931 0.707,4.72 L 0.668,4.681 C 0.59,4.842 0.535,5.041 0.508,5.279 0.48,5.654 0.469,5.865 0.469,5.92 0.336,5.787 0.27,5.56 0.27,5.24 0.027,5.638 -0.039,6.08 0.066,6.56 0.148,7.013 0.348,7.412 0.668,7.76 0.43,8.08 0.348,8.799 0.43,9.92 0.828,9.681 1.375,9.506 2.066,9.4 h 1 C 3.363,9.4 3.762,9.334 4.27,9.201 z"
   inkscape:connector-curvature="0" />
      <path
   id="path238"
   style="fill:#000000;fill-opacity:0.2;fill-rule:evenodd"
   d="m 0.27,5.24 c 0,0.32 0.066,0.547 0.199,0.68 C 0.469,5.865 0.48,5.654 0.508,5.279 0.535,5.041 0.59,4.842 0.668,4.681 H 0.629 L 0.309,5.158 0.27,5.24 z"
   inkscape:connector-curvature="0" />
      <path
   id="path240"
   style="fill:#ffffff;fill-opacity:0.2;fill-rule:evenodd"
   d="m 0.27,5.24 c 0,0.32 0.066,0.547 0.199,0.68 C 0.469,5.865 0.48,5.654 0.508,5.279 0.535,5.041 0.59,4.842 0.668,4.681 H 0.629 L 0.309,5.158 0.27,5.24 z"
   inkscape:connector-curvature="0" />
    </g>
  </g>
<metadata
   id="metadata116"><rdf:RDF><cc:Work><dc:format>image/svg+xml</dc:format><dc:type
         rdf:resource="http://purl.org/dc/dcmitype/StillImage" /><cc:license
         rdf:resource="http://creativecommons.org/licenses/publicdomain/" /><dc:publisher><cc:Agent
           rdf:about="http://openclipart.org/"><dc:title>Openclipart</dc:title></cc:Agent></dc:publisher><dc:title /></cc:Work><cc:License
       rdf:about="http://creativecommons.org/licenses/publicdomain/"><cc:permits
         rdf:resource="http://creativecommons.org/ns#Reproduction" /><cc:permits
         rdf:resource="http://creativecommons.org/ns#Distribution" /><cc:permits
         rdf:resource="http://creativecommons.org/ns#DerivativeWorks" /></cc:License></rdf:RDF></metadata></svg>